<svg xmlns="http://www.w3.org/2000/svg" xmlns:xlink="http://www.w3.org/1999/xlink" height="48" width="48"><defs><radialGradient xlink:href="#a" id="m" gradientUnits="userSpaceOnUse" gradientTransform="matrix(-2.774 0 0 1.97 112.762 -872.885)" cx="605.714" cy="486.648" fx="605.714" fy="486.648" r="117.143"/><linearGradient id="a"><stop offset="0"/><stop offset="1" stop-opacity="0"/></linearGradient><radialGradient xlink:href="#a" id="l" gradientUnits="userSpaceOnUse" gradientTransform="matrix(2.774 0 0 1.97 -1891.633 -872.885)" cx="605.714" cy="486.648" fx="605.714" fy="486.648" r="117.143"/><linearGradient id="b"><stop offset="0" stop-opacity="0"/><stop offset=".5"/><stop offset="1" stop-opacity="0"/></linearGradient><linearGradient xlink:href="#b" id="k" gradientUnits="userSpaceOnUse" gradientTransform="matrix(2.774 0 0 1.97 -1892.179 -872.885)" x1="302.857" y1="366.648" x2="302.857" y2="609.505"/><linearGradient><stop offset="0" stop-color="#9aa29a"/><stop offset="1" stop-color="#fff"/></linearGradient><linearGradient><stop offset="0" stop-color="#9aa29a"/><stop offset="1" stop-color="none"/></linearGradient><linearGradient id="d"><stop offset="0" stop-opacity=".129"/><stop offset="1" stop-opacity="0"/></linearGradient><linearGradient id="e"><stop offset="0" stop-color="#fff"/><stop offset="1" stop-color="#ededed"/></linearGradient><linearGradient id="f"><stop offset="0" stop-color="#9aa29a"/><stop offset="1" stop-color="#b5beb5"/></linearGradient><linearGradient id="g"><stop offset="0" stop-color="#fff"/><stop offset="1" stop-color="#dcdcdc"/></linearGradient><linearGradient id="h"><stop offset="0" stop-color="#ededed"/><stop offset="1" stop-color="#c8c8c8"/></linearGradient><linearGradient id="j"><stop offset="0" stop-color="#989690"/><stop offset="1" stop-color="#656460"/></linearGradient><linearGradient id="i"><stop offset="0" stop-color="#fff"/><stop offset="1" stop-color="#e2e2e2"/></linearGradient><linearGradient id="c"><stop offset="0"/><stop offset="1" stop-opacity="0"/></linearGradient><radialGradient r="7.228" fy="73.616" fx="6.703" cy="73.616" cx="6.703" gradientTransform="scale(1.902 .526)" gradientUnits="userSpaceOnUse" xlink:href="#c"/><linearGradient y2="32.203" x2="9.762" y1="37.785" x1="8.78" gradientTransform="matrix(2.395 0 0 .781 2.88 .343)" gradientUnits="userSpaceOnUse" id="u" xlink:href="#d"/><linearGradient y2="24.133" x2="21.112" y1="13.686" x1="11.233" gradientTransform="matrix(1.371 0 0 1.444 2.431 -.141)" gradientUnits="userSpaceOnUse" id="t" xlink:href="#e"/><linearGradient y2="52.091" x2="9.886" y1="37.197" x1="8.916" gradientTransform="matrix(2.455 0 0 .762 2.88 .343)" gradientUnits="userSpaceOnUse" id="s" xlink:href="#f"/><linearGradient y2="52.091" x2="9.886" y1="37.197" x1="8.916" gradientTransform="matrix(2.455 0 0 .762 2.88 .343)" gradientUnits="userSpaceOnUse" id="r" xlink:href="#f"/><linearGradient y2="29.569" x2="15.311" y1="15.148" x1="10.184" gradientTransform="matrix(1.819 0 0 1.028 2.88 .343)" gradientUnits="userSpaceOnUse" id="q" xlink:href="#g"/><linearGradient y2="17.877" x2="13.467" y1="7.231" x1="5.827" gradientTransform="matrix(1.571 0 0 1.191 2.88 .343)" gradientUnits="userSpaceOnUse" id="p" xlink:href="#h"/><linearGradient y2="26.023" x2="18.475" y1="4.746" x1="11.573" gradientTransform="matrix(1.343 0 0 1.418 2.88 .315)" gradientUnits="userSpaceOnUse" id="n" xlink:href="#i"/><linearGradient y2="15.257" x2="30.6" y1="15.257" x1="2.062" gradientTransform="matrix(1.343 0 0 1.418 2.88 .315)" gradientUnits="userSpaceOnUse" id="o" xlink:href="#j"/></defs><g><g color="#000"><path opacity=".402" fill="url(#k)" overflow="visible" d="M9.595 34.322h30.41v10.992H9.594z"/><path d="M40.004 34.322v10.992c3.243.02 7.84-2.463 7.84-5.497s-3.62-5.495-7.84-5.495z" opacity=".402" fill="url(#l)" overflow="visible"/><path d="M9.595 34.322v10.992c-3.244.02-7.84-2.463-7.84-5.497s3.618-5.495 7.84-5.495z" opacity=".402" fill="url(#m)" overflow="visible"/></g><path d="M6.333 16.972v24.51h36.973l-.062-24.392C43.24 15.712 31.396 2.412 29.21 2.412h-8.55c-2.298 0-14.327 13.262-14.327 14.56z" fill="url(#n)" fill-rule="evenodd" stroke="url(#o)" stroke-width=".857" stroke-linejoin="round"/><path d="M6.923 16.787c-.398-.43 11.887-13.693 13.744-13.693h8.376c1.747 0 14.037 13.128 13.427 13.885L31.61 30.474l-12.315-.318-12.372-13.37z" fill="url(#p)" fill-rule="evenodd"/><path d="M19.078 30.018l-7.333-8.746 24.818-6.936 3.03 6.216-7.417 9.44" fill-opacity=".146" fill-rule="evenodd"/><path d="M18.292 29.836l-7.483-8.81 24.647-6.893 3.174 6.27-7.24 9.408" fill-opacity=".146" fill-rule="evenodd"/><path d="M18.775 29.957l-7.675-8.66 24.968-7.065 3.286 6.593-7.48 9.107" fill-opacity=".146" fill-rule="evenodd"/><path d="M18.594 30.44l-7.333-8.745L35.974 14.8l3.11 6.39-7.12 8.985" fill="url(#q)" fill-rule="evenodd"/><path d="M20.488 29.064L7.092 40.036l13.91-9.604h9.017l12.42 9.482-11.865-10.85H20.488z" fill="url(#r)" fill-rule="evenodd"/><path d="M6.963 16.885L18.48 31.2l1.068-.853L6.963 16.885z" color="#000" fill="url(#s)" fill-rule="evenodd" overflow="visible"/><path d="M7.308 17.13l.03 23.212h34.946l-.063-23.084c0-.75-11.215-13.8-13.383-13.8h-7.895c-2.253 0-13.635 12.893-13.634 13.673z" stroke="url(#t)" stroke-width=".857" fill="none"/><path d="M20.957 30.453l-11.94 8.27 2.218.007 9.998-6.87 8.822-1.422-9.098.015z" fill="#fff" fill-rule="evenodd"/><path d="M11.428 21.67l1.324 1.41 22.79-6.883 2.916 5.682.614-.713-3.07-6.378-24.574 6.88z" fill="#fff" fill-rule="evenodd"/><path d="M13.308 23.636l6.026 6.454 1.197-1.026 10.088.043.812.727 3.975-4.744c-1.154-1.41-22.097-1.454-22.097-1.454z" fill="url(#u)" fill-rule="evenodd"/><path d="M41.813 17.848l-9.952 12.63-1.067-.854 11.02-11.776z" color="#000" fill="#b1b1b1" fill-rule="evenodd" overflow="visible"/></g></svg>