<?xml version="1.0" encoding="UTF-8" standalone="no"?>
<!-- Created with Inkscape (http://www.inkscape.org/) -->

<svg
   xmlns:dc="http://purl.org/dc/elements/1.1/"
   xmlns:cc="http://creativecommons.org/ns#"
   xmlns:rdf="http://www.w3.org/1999/02/22-rdf-syntax-ns#"
   xmlns:svg="http://www.w3.org/2000/svg"
   xmlns="http://www.w3.org/2000/svg"
   version="1.1"
   width="64"
   height="64"
   id="svg3098">
  <defs
     id="defs3100" />
  <metadata
     id="metadata3103">
    <rdf:RDF>
      <cc:Work
         rdf:about="">
        <dc:format>image/svg+xml</dc:format>
        <dc:type
           rdf:resource="http://purl.org/dc/dcmitype/StillImage" />
        <dc:title></dc:title>
      </cc:Work>
    </rdf:RDF>
  </metadata>
  <g
     id="layer1">
    <g
       transform="matrix(0.65642334,0,0,0.65642334,-354.69025,-450.83624)"
       id="g4224-3-6">
      <g
         id="g3942">
        <path
           d="m 47.053572,25.008928 a 21.5625,21.5625 0 1 1 -43.1250003,0 21.5625,21.5625 0 1 1 43.1250003,0 z"
           transform="matrix(2.2608245,0,0,2.2608245,531.45585,679.01538)"
           id="path3053-7-5-3"
           style="fill:#2e3436;fill-opacity:1;stroke:none" />
        <path
           d="m 559.62451,538.19452 a 194.95944,194.95944 0 1 1 -389.91888,0 194.95944,194.95944 0 1 1 389.91888,0 z"
           transform="matrix(0.19139471,0,0,0.19139471,519.29172,632.54855)"
           id="path3827-4-5-6"
           style="fill:#ffffff;fill-opacity:0;stroke:#eeeeec;stroke-width:8.05637169;stroke-miterlimit:4;stroke-opacity:1;stroke-dasharray:none" />
        <path
           d="m 559.62451,538.19452 a 194.95944,194.95944 0 1 1 -389.91888,0 194.95944,194.95944 0 1 1 389.91888,0 z"
           transform="matrix(0.21483894,0,0,0.21483894,510.74243,619.93103)"
           id="path3827-5-3-1-8"
           style="fill:none;stroke:#eeeeec;stroke-width:7.17299414;stroke-miterlimit:4;stroke-opacity:1;stroke-dasharray:none" />
        <text
           x="587.98956"
           y="725.9472"
           transform="scale(0.96300278,1.0384186)"
           id="text2995-0-1-2-2-6"
           xml:space="preserve"
           style="font-size:66.28216553px;font-style:normal;font-variant:normal;font-weight:normal;font-stretch:normal;text-align:start;line-height:125%;letter-spacing:0px;word-spacing:0px;writing-mode:lr-tb;text-anchor:start;fill:#eeeeec;fill-opacity:1;stroke:none;font-family:Allura;-inkscape-font-specification:Allura"><tspan
             x="587.98956"
             y="725.9472"
             id="tspan2997-1-0-4-7-4">B</tspan></text>
      </g>
    </g>
  </g>
</svg>
